<svg data-v-29081953="" xmlns="http://www.w3.org/2000/svg" viewBox="0 0 300 300"><!----><defs data-v-29081953=""><!----></defs><rect data-v-29081953="" fill="transparent" x="0" y="0" width="300px" height="300px" class="logo-background-square"></rect><defs data-v-29081953=""><linearGradient data-v-29081953="" gradientTransform="rotate(25)" id="82a4bd1d-03ba-4f18-848d-953c327aa075" x1="0%" y1="0%" x2="100%" y2="0%"><stop data-v-29081953="" offset="0%" stop-color="#FFFFFF" stop-opacity="1"></stop><stop data-v-29081953="" offset="100%" stop-color="#FFFFFF" stop-opacity="1"></stop></linearGradient></defs><g data-v-29081953="" id="1365ac98-b054-41db-8e4d-a74f5efcdeb8" fill="url(#82a4bd1d-03ba-4f18-848d-953c327aa075)" transform="matrix(2.040335865787797,0,0,2.040335865787797,19.347092476734748,149.00693315997768)"><path d="M6.44 10.39L7.49 13.58L9.16 13.58L5.78 3.92L3.79 3.92L0.32 13.58L1.96 13.58L3.01 10.39ZM3.42 9.17L4.76 5.19L6.03 9.17ZM10.92 3.56C10.40 3.56 10.02 3.93 10.02 4.44C10.02 4.96 10.40 5.33 10.92 5.33C11.44 5.33 11.83 4.96 11.83 4.44C11.83 3.93 11.44 3.56 10.92 3.56ZM11.69 13.58L11.69 6.15L10.15 6.15L10.15 13.58ZM16.98 5.96C16.60 5.96 16.17 6.12 15.83 6.38L15.20 7.41L15.20 6.15L13.66 6.15L13.66 13.58L15.20 13.58L15.20 9.72C15.20 7.88 16.09 7.15 17.50 7.25L17.50 6.05C17.35 5.99 17.19 5.96 16.98 5.96ZM20.09 3.29L18.55 3.29L18.55 11.35C18.55 11.80 18.55 12.14 18.56 12.42C18.62 13.37 19.17 13.66 19.98 13.66C20.33 13.66 20.68 13.64 20.99 13.59L20.99 12.52C20.33 12.57 20.13 12.43 20.10 12.01C20.09 11.79 20.09 11.56 20.09 11.31ZM23.04 3.56C22.53 3.56 22.15 3.93 22.15 4.44C22.15 4.96 22.53 5.33 23.04 5.33C23.56 5.33 23.95 4.96 23.95 4.44C23.95 3.93 23.56 3.56 23.04 3.56ZM23.81 13.58L23.81 6.15L22.27 6.15L22.27 13.58ZM32.35 8.08C32.21 6.78 31.30 5.95 29.71 5.95C28.97 5.95 28.42 6.08 27.83 6.52L27.33 7.38L27.33 6.15L25.79 6.15L25.79 13.58L27.33 13.58L27.33 10.25C27.33 7.92 28.20 7.08 29.26 7.08C30.31 7.08 30.76 7.67 30.83 8.51C30.86 8.89 30.86 9.21 30.86 9.56L30.86 13.58L32.40 13.58L32.40 9.39C32.40 8.79 32.38 8.46 32.35 8.08ZM40.67 9.67C40.67 7.57 39.51 5.95 37.35 5.95C35.21 5.95 33.71 7.53 33.71 9.88C33.71 12.52 35.21 13.78 37.20 13.78C38.82 13.78 40.24 12.94 40.56 11.17L39.00 11.17C38.85 12.11 38.15 12.66 37.25 12.66C36.25 12.66 35.43 12.07 35.31 10.29L40.64 10.29C40.67 10.02 40.67 9.81 40.67 9.67ZM37.30 7.07C38.37 7.07 38.98 7.84 39.09 9.21L35.32 9.21C35.49 7.78 36.25 7.07 37.30 7.07ZM49.74 3.98C49.25 3.92 49.03 3.92 48.51 3.92L45.39 3.92L45.39 13.58L48.45 13.58C48.97 13.58 49.20 13.58 49.69 13.52C51.93 13.24 53.63 11.52 53.63 8.64C53.63 5.71 51.98 4.24 49.74 3.98ZM49.42 12.29C49.11 12.35 48.79 12.35 48.31 12.35L46.93 12.35L46.93 5.14L48.37 5.14C48.83 5.14 49.17 5.15 49.48 5.21C51.02 5.43 51.98 6.61 51.98 8.64C51.98 10.78 50.97 12.07 49.42 12.29ZM59.37 13.58L60.90 13.58C60.79 12.75 60.76 12.25 60.76 11.69L60.76 9.07C60.76 8.72 60.75 8.33 60.72 8.02C60.59 6.76 59.84 5.95 57.92 5.95C56.22 5.95 55.01 6.87 54.91 8.50L56.45 8.50C56.53 7.57 56.99 7.07 57.89 7.07C58.77 7.07 59.15 7.49 59.19 8.09C59.22 8.37 59.22 8.62 59.22 8.90L59.22 9.09L58.74 9.09C55.93 9.09 54.61 9.98 54.61 11.63C54.61 13.02 55.69 13.78 57.01 13.78C57.71 13.78 58.35 13.65 58.86 13.30L59.23 12.50ZM57.57 12.66C56.76 12.66 56.24 12.29 56.24 11.51C56.24 10.37 57.41 9.97 59.22 10.11L59.22 10.79C59.22 12.00 58.53 12.66 57.57 12.66ZM64.55 7.28L66.01 7.28L66.01 6.20L64.55 6.20L64.55 4.42L63.03 4.42L63.03 6.20L61.98 6.20L61.98 7.28L63.03 7.28L63.03 11.31C63.03 11.73 63.03 12.05 63.04 12.31C63.11 13.29 63.62 13.72 64.78 13.72C65.16 13.72 65.52 13.69 65.91 13.64L65.91 12.57C64.90 12.67 64.62 12.52 64.57 11.79C64.55 11.59 64.55 11.42 64.55 11.17ZM71.69 13.58L73.22 13.58C73.11 12.75 73.08 12.25 73.08 11.69L73.08 9.07C73.08 8.72 73.07 8.33 73.04 8.02C72.91 6.76 72.16 5.95 70.24 5.95C68.54 5.95 67.33 6.87 67.23 8.50L68.77 8.50C68.85 7.57 69.31 7.07 70.21 7.07C71.09 7.07 71.47 7.49 71.51 8.09C71.54 8.37 71.54 8.62 71.54 8.90L71.54 9.09L71.06 9.09C68.25 9.09 66.93 9.98 66.93 11.63C66.93 13.02 68.01 13.78 69.33 13.78C70.03 13.78 70.67 13.65 71.18 13.30L71.55 12.50ZM69.89 12.66C69.08 12.66 68.56 12.29 68.56 11.51C68.56 10.37 69.73 9.97 71.54 10.11L71.54 10.79C71.54 12.00 70.85 12.66 69.89 12.66ZM81.38 3.72C79.58 3.72 78.05 4.77 78.05 6.48C78.05 8.16 79.27 8.85 81.10 9.28C82.67 9.65 83.26 10.16 83.26 11.17C83.26 12.05 82.46 12.60 81.45 12.60C80.32 12.60 79.48 11.97 79.23 10.78L77.63 10.78C77.83 12.73 79.24 13.78 81.45 13.78C83.33 13.78 84.88 12.71 84.88 10.96C84.88 9.35 83.87 8.44 81.75 7.95C80.25 7.60 79.67 7.17 79.67 6.23C79.67 5.32 80.39 4.90 81.30 4.90C82.42 4.90 83.06 5.56 83.17 6.66L84.77 6.66C84.57 4.98 83.52 3.72 81.38 3.72ZM89.29 5.95C87.35 5.95 85.69 7.36 85.69 9.90C85.69 12.54 87.16 13.78 89.11 13.78C90.86 13.78 92.15 12.89 92.50 11.12L90.93 11.12C90.71 12.12 90.08 12.66 89.19 12.66C88.16 12.66 87.32 11.80 87.32 9.79C87.32 7.92 88.17 7.07 89.25 7.07C90.16 7.07 90.76 7.59 90.99 8.72L92.54 8.72C92.36 7.08 91.17 5.95 89.29 5.95ZM94.64 3.56C94.12 3.56 93.74 3.93 93.74 4.44C93.74 4.96 94.12 5.33 94.64 5.33C95.16 5.33 95.55 4.96 95.55 4.44C95.55 3.93 95.16 3.56 94.64 3.56ZM95.41 13.58L95.41 6.15L93.87 6.15L93.87 13.58ZM103.78 9.67C103.78 7.57 102.62 5.95 100.46 5.95C98.32 5.95 96.82 7.53 96.82 9.88C96.82 12.52 98.32 13.78 100.31 13.78C101.93 13.78 103.35 12.94 103.67 11.17L102.12 11.17C101.96 12.11 101.26 12.66 100.37 12.66C99.36 12.66 98.55 12.07 98.42 10.29L103.75 10.29C103.78 10.02 103.78 9.81 103.78 9.67ZM100.41 7.07C101.49 7.07 102.09 7.84 102.20 9.21L98.43 9.21C98.60 7.78 99.36 7.07 100.41 7.07ZM111.82 8.08C111.68 6.78 110.77 5.95 109.17 5.95C108.43 5.95 107.88 6.08 107.30 6.52L106.79 7.38L106.79 6.15L105.25 6.15L105.25 13.58L106.79 13.58L106.79 10.25C106.79 7.92 107.66 7.08 108.72 7.08C109.77 7.08 110.22 7.67 110.29 8.51C110.32 8.89 110.32 9.21 110.32 9.56L110.32 13.58L111.86 13.58L111.86 9.39C111.86 8.79 111.85 8.46 111.82 8.08ZM116.77 5.95C114.83 5.95 113.18 7.36 113.18 9.90C113.18 12.54 114.65 13.78 116.59 13.78C118.34 13.78 119.63 12.89 119.98 11.12L118.41 11.12C118.19 12.12 117.56 12.66 116.68 12.66C115.64 12.66 114.80 11.80 114.80 9.79C114.80 7.92 115.65 7.07 116.73 7.07C117.64 7.07 118.24 7.59 118.47 8.72L120.02 8.72C119.84 7.08 118.65 5.95 116.77 5.95ZM127.75 9.67C127.75 7.57 126.59 5.95 124.43 5.95C122.29 5.95 120.79 7.53 120.79 9.88C120.79 12.52 122.29 13.78 124.28 13.78C125.90 13.78 127.32 12.94 127.64 11.17L126.08 11.17C125.93 12.11 125.23 12.66 124.33 12.66C123.33 12.66 122.51 12.07 122.39 10.29L127.72 10.29C127.75 10.02 127.75 9.81 127.75 9.67ZM124.38 7.07C125.45 7.07 126.06 7.84 126.17 9.21L122.40 9.21C122.57 7.78 123.33 7.07 124.38 7.07Z"></path></g><defs data-v-29081953=""><!----></defs><g data-v-29081953="" id="15409dd8-e290-4ae5-bcc0-0c5ebc7eecc3" stroke="none" fill="#15AEAA" transform="matrix(1.5398296165218153,0,0,1.5398296165218153,73.00793719060532,98.13677892161046)"><path d="M30.719 18.446a3.629 3.629 0 1 0 0 7.259 3.63 3.63 0 1 0 0-7.259zm0 6.18a2.55 2.55 0 1 1 .001-5.101 2.55 2.55 0 0 1-.001 5.101zM69.28 18.446a3.63 3.63 0 1 0 3.63 3.629 3.63 3.63 0 0 0-3.63-3.629zm0 6.18a2.551 2.551 0 1 1-.002-5.102 2.551 2.551 0 0 1 .002 5.102z"></path><path d="M99.505 6.445c-1.437 1.592-3.406 2.642-5.325 3.532-3.007 1.396-6.209 2.38-9.399 3.256-9.748 2.677-18.736 3.718-28.729 5.058.021-.207.031-.418.031-.629 0-.81-.158-1.583-.445-2.287l9.076-1.246s.48-.094.466-.222-.505-.108-.505-.108l-9.364.893a6.082 6.082 0 0 0-4.711-3.084l-.32-10.562S50.27 0 50 0c-.272 0-.282 1.046-.282 1.046l-.315 10.561a6.087 6.087 0 0 0-4.712 3.084l-9.366-.893s-.488-.02-.503.108c-.016.128.465.222.465.222l9.077 1.246a6.052 6.052 0 0 0-.413 2.916c-9.993-1.34-18.983-2.381-28.729-5.058-3.192-.876-6.392-1.859-9.402-3.256C3.899 9.087 1.93 8.037.495 6.445c-.255-.283-.669.134-.416.415.044.051.089.101.136.15 1.497 1.576 3.496 2.656 5.459 3.542 3.019 1.368 6.195 2.378 9.389 3.248 9.869 2.685 19.653 5.722 29.775 7.081.001 0 .001-.002.003-.002a6.07 6.07 0 0 0 5.16 2.864 6.078 6.078 0 0 0 5.161-2.864v.002c10.123-1.359 19.908-4.396 29.774-7.081 3.194-.869 6.371-1.88 9.392-3.248 1.961-.886 3.959-1.966 5.457-3.542.046-.049.092-.099.137-.15.253-.281-.163-.698-.417-.415zM53.616 16.5c-.098.275-1.117.414-1.322.438l-.024.002-.015.003-1.866.052h-.779l-1.865-.052-.016-.003-.022-.002c-.206-.024-1.228-.163-1.324-.438a.2.2 0 0 1 .003-.128l-.005.002.01-.027c.004-.008.006-.017.012-.026.071-.174.31-.722.497-.828.171-.099.785 0 .785 0l1.925.178h.778l1.926-.178s.614-.099.784 0c.187.106.425.654.497.828a.485.485 0 0 1 .024.053l-.005-.002a.2.2 0 0 1 .002.128z"></path></g><defs data-v-29081953=""><!----></defs><g data-v-29081953="" id="2b9b46c8-99b1-4d96-ac53-6e65accc20b0" fill="#FFFFFF" transform="matrix(1.2828947368421055,0,0,1.2828947368421055,52.03815787638487,180.09249766334102)"><path d="M6.51 14.40L0.36 14.40L0.39 14.11L1.54 13.90L1.54 6.34L0.37 6.17L0.40 5.90L3.51 5.90L3.48 6.17L2.28 6.32L2.28 14.03L5.90 14.03L6.43 12.09L6.73 12.14L6.51 14.40ZM15.40 6.24L15.40 6.24L15.40 6.24Q15.40 5.58 15.83 5.58L15.83 5.58L15.83 5.58Q16.26 5.58 16.26 6.24L16.26 6.24L16.26 6.24Q16.26 6.94 15.83 6.94L15.83 6.94L15.83 6.94Q15.40 6.94 15.40 6.24ZM17.19 14.40L14.42 14.40L14.51 14.18L15.53 13.99L15.53 9.01L14.49 8.82L14.51 8.63L16.12 8.50L16.17 8.56L16.17 13.99L17.27 14.17L17.19 14.40ZM28.34 14.40L24.90 14.40L24.99 14.19L26.01 13.99L26.01 8.94L25.00 8.94L25.08 8.70L26.03 8.55L26.03 8.55Q26.09 7.77 26.30 7.16L26.30 7.16L26.30 7.16Q26.52 6.56 26.82 6.20L26.82 6.20L26.82 6.20Q27.13 5.84 27.48 5.66L27.48 5.66L27.48 5.66Q27.83 5.48 28.21 5.48L28.21 5.48L28.21 5.48Q28.72 5.48 29.04 5.70L29.04 5.70L29.04 5.70Q29.36 5.93 29.36 6.23L29.36 6.23L29.36 6.23Q29.36 6.60 29.03 6.73L29.03 6.73L29.03 6.73Q28.53 5.91 27.82 5.91L27.82 5.91L27.82 5.91Q27.37 5.91 27.04 6.40L27.04 6.40L27.04 6.40Q26.71 6.88 26.71 7.68L26.71 7.68L26.71 8.60L28.46 8.60L28.39 8.94L26.71 8.94L26.71 13.98L28.39 14.13L28.34 14.40ZM36.93 9.21L36.07 9.21L36.07 9.02L36.07 9.02Q36.40 8.90 36.55 8.82L36.55 8.82L36.55 8.82Q36.70 8.74 36.86 8.56L36.86 8.56L36.86 8.56Q37.02 8.37 37.11 8.07L37.11 8.07L37.11 8.07Q37.20 7.77 37.30 7.23L37.30 7.23L37.59 7.23L37.59 8.86L39.52 8.86L39.47 9.23L37.58 9.23L37.56 12.34L37.56 12.34Q37.56 13.25 37.77 13.57L37.77 13.57L37.77 13.57Q37.98 13.90 38.45 13.90L38.45 13.90L38.45 13.90Q38.68 13.90 38.96 13.77L38.96 13.77L38.96 13.77Q39.25 13.64 39.41 13.51L39.41 13.51L39.58 13.38L39.69 13.61L39.69 13.61Q39.38 14.04 38.94 14.30L38.94 14.30L38.94 14.30Q38.50 14.56 38.06 14.56L38.06 14.56L38.06 14.56Q37.45 14.56 37.18 14.10L37.18 14.10L37.18 14.10Q36.91 13.64 36.91 12.74L36.91 12.74L36.93 9.21ZM48.12 11.20L48.12 11.20L48.12 11.20Q48.12 12.44 48.70 13.29L48.70 13.29L48.70 13.29Q49.27 14.14 50.21 14.14L50.21 14.14L50.21 14.14Q50.95 14.14 51.41 13.44L51.41 13.44L51.41 13.44Q51.86 12.74 51.86 11.66L51.86 11.66L51.86 11.66Q51.86 10.94 51.63 10.30L51.63 10.30L51.63 10.30Q51.39 9.67 50.91 9.25L50.91 9.25L50.91 9.25Q50.44 8.84 49.84 8.84L49.84 8.84L49.84 8.84Q49.08 8.84 48.60 9.51L48.60 9.51L48.60 9.51Q48.12 10.19 48.12 11.20ZM47.40 11.69L47.40 11.69L47.40 11.69Q47.40 10.18 48.18 9.28L48.18 9.28L48.18 9.28Q48.96 8.39 50.14 8.39L50.14 8.39L50.14 8.39Q50.87 8.39 51.43 8.81L51.43 8.81L51.43 8.81Q51.99 9.23 52.29 9.92L52.29 9.92L52.29 9.92Q52.58 10.60 52.58 11.41L52.58 11.41L52.58 11.41Q52.58 12.81 51.81 13.70L51.81 13.70L51.81 13.70Q51.04 14.58 49.96 14.58L49.96 14.58L49.96 14.58Q48.86 14.58 48.13 13.79L48.13 13.79L48.13 13.79Q47.40 13.00 47.40 11.69ZM63.71 14.40L60.27 14.40L60.35 14.19L61.38 13.99L61.38 8.94L60.37 8.94L60.45 8.70L61.40 8.55L61.40 8.55Q61.46 7.77 61.67 7.16L61.67 7.16L61.67 7.16Q61.89 6.56 62.19 6.20L62.19 6.20L62.19 6.20Q62.49 5.84 62.85 5.66L62.85 5.66L62.85 5.66Q63.20 5.48 63.57 5.48L63.57 5.48L63.57 5.48Q64.09 5.48 64.41 5.70L64.41 5.70L64.41 5.70Q64.73 5.93 64.73 6.23L64.73 6.23L64.73 6.23Q64.73 6.60 64.40 6.73L64.40 6.73L64.40 6.73Q63.90 5.91 63.18 5.91L63.18 5.91L63.18 5.91Q62.74 5.91 62.41 6.40L62.41 6.40L62.41 6.40Q62.08 6.88 62.08 7.68L62.08 7.68L62.08 8.60L63.83 8.60L63.76 8.94L62.08 8.94L62.08 13.98L63.76 14.13L63.71 14.40ZM74.87 14.40L71.43 14.40L71.52 14.19L72.54 13.99L72.54 8.94L71.53 8.94L71.61 8.70L72.56 8.55L72.56 8.55Q72.63 7.77 72.84 7.16L72.84 7.16L72.84 7.16Q73.05 6.56 73.35 6.20L73.35 6.20L73.35 6.20Q73.66 5.84 74.01 5.66L74.01 5.66L74.01 5.66Q74.36 5.48 74.74 5.48L74.74 5.48L74.74 5.48Q75.26 5.48 75.57 5.70L75.57 5.70L75.57 5.70Q75.89 5.93 75.89 6.23L75.89 6.23L75.89 6.23Q75.89 6.60 75.56 6.73L75.56 6.73L75.56 6.73Q75.07 5.91 74.35 5.91L74.35 5.91L74.35 5.91Q73.90 5.91 73.58 6.40L73.58 6.40L73.58 6.40Q73.25 6.88 73.25 7.68L73.25 7.68L73.25 8.60L75.00 8.60L74.92 8.94L73.25 8.94L73.25 13.98L74.92 14.13L74.87 14.40ZM92.61 8.09L92.54 5.89L99.60 5.89L99.36 8.16L99.02 8.12L98.90 6.24L96.37 6.24L96.37 13.90L97.58 14.08L97.50 14.40L94.40 14.40L94.44 14.11L95.63 13.90L95.63 6.24L93.20 6.24L92.96 8.15L92.61 8.09ZM108.07 11.20L108.07 11.20L108.07 11.20Q108.07 12.44 108.65 13.29L108.65 13.29L108.65 13.29Q109.22 14.14 110.16 14.14L110.16 14.14L110.16 14.14Q110.90 14.14 111.36 13.44L111.36 13.44L111.36 13.44Q111.82 12.74 111.82 11.66L111.82 11.66L111.82 11.66Q111.82 10.94 111.58 10.30L111.58 10.30L111.58 10.30Q111.34 9.67 110.87 9.25L110.87 9.25L110.87 9.25Q110.39 8.84 109.79 8.84L109.79 8.84L109.79 8.84Q109.03 8.84 108.55 9.51L108.55 9.51L108.55 9.51Q108.07 10.19 108.07 11.20ZM107.35 11.69L107.35 11.69L107.35 11.69Q107.35 10.18 108.13 9.28L108.13 9.28L108.13 9.28Q108.91 8.39 110.09 8.39L110.09 8.39L110.09 8.39Q110.82 8.39 111.38 8.81L111.38 8.81L111.38 8.81Q111.95 9.23 112.24 9.92L112.24 9.92L112.24 9.92Q112.53 10.60 112.53 11.41L112.53 11.41L112.53 11.41Q112.53 12.81 111.76 13.70L111.76 13.70L111.76 13.70Q111.00 14.58 109.92 14.58L109.92 14.58L109.92 14.58Q108.81 14.58 108.08 13.79L108.08 13.79L108.08 13.79Q107.35 13.00 107.35 11.69ZM120.98 11.38L120.98 11.38L120.98 11.38Q120.98 12.63 121.44 13.35L121.44 13.35L121.44 13.35Q121.89 14.08 122.81 14.08L122.81 14.08L122.81 14.08Q123.23 14.08 123.72 13.78L123.72 13.78L123.72 13.78Q124.21 13.49 124.48 13.10L124.48 13.10L124.48 9.58L124.48 9.58Q124.19 9.20 123.75 9.00L123.75 9.00L123.75 9.00Q123.31 8.80 122.80 8.80L122.80 8.80L122.80 8.80Q122.07 8.80 121.53 9.48L121.53 9.48L121.53 9.48Q120.98 10.15 120.98 11.38ZM120.30 11.76L120.30 11.76L120.30 11.76Q120.30 10.99 120.53 10.35L120.53 10.35L120.53 10.35Q120.77 9.71 121.17 9.29L121.17 9.29L121.17 9.29Q121.56 8.87 122.08 8.63L122.08 8.63L122.08 8.63Q122.59 8.40 123.14 8.40L123.14 8.40L123.14 8.40Q123.48 8.40 123.89 8.51L123.89 8.51L123.89 8.51Q124.30 8.62 124.47 8.76L124.47 8.76L124.54 8.76L124.43 7.83L124.43 6.26L123.38 6.05L123.42 5.84L125.05 5.70L125.10 5.77L125.10 12.83L125.10 12.83Q125.10 13.14 125.15 13.36L125.15 13.36L125.15 13.36Q125.19 13.58 125.24 13.70L125.24 13.70L125.24 13.70Q125.30 13.82 125.39 13.90L125.39 13.90L125.39 13.90Q125.49 13.99 125.55 14.01L125.55 14.01L125.55 14.01Q125.61 14.03 125.71 14.05L125.71 14.05L126.12 14.14L126.08 14.39L126.08 14.39Q125.76 14.53 125.43 14.53L125.43 14.53L125.43 14.53Q124.98 14.53 124.77 14.27L124.77 14.27L124.77 14.27Q124.55 14 124.55 13.55L124.55 13.55L124.55 13.50L124.48 13.50L124.48 13.50Q124.15 13.95 123.62 14.25L123.62 14.25L123.62 14.25Q123.09 14.55 122.43 14.55L122.43 14.55L122.43 14.55Q121.49 14.55 120.89 13.82L120.89 13.82L120.89 13.82Q120.30 13.08 120.30 11.76ZM134.49 13.04L134.49 13.04L134.49 13.04Q134.49 13.47 134.75 13.79L134.75 13.79L134.75 13.79Q135.01 14.10 135.45 14.10L135.45 14.10L135.45 14.10Q135.92 14.10 136.32 13.83L136.32 13.83L136.32 13.83Q136.72 13.56 136.97 13.13L136.97 13.13L136.97 11.44L136.97 11.44Q136.51 11.51 136.18 11.58L136.18 11.58L136.18 11.58Q135.85 11.66 135.51 11.78L135.51 11.78L135.51 11.78Q135.17 11.90 134.97 12.06L134.97 12.06L134.97 12.06Q134.76 12.22 134.62 12.47L134.62 12.47L134.62 12.47Q134.49 12.72 134.49 13.04ZM133.81 13.24L133.81 13.24L133.81 13.24Q133.81 12.37 134.60 11.80L134.60 11.80L134.60 11.80Q135.40 11.23 136.97 11.14L136.97 11.14L136.97 10.87L136.97 10.87Q136.97 9.74 136.70 9.25L136.70 9.25L136.70 9.25Q136.42 8.75 135.67 8.75L135.67 8.75L135.67 8.75Q135.15 8.75 134.92 9.13L134.92 9.13L134.92 9.13Q134.69 9.52 134.60 10.23L134.60 10.23L134.60 10.23Q134.36 10.23 134.20 10.11L134.20 10.11L134.20 10.11Q134.04 9.99 134.04 9.78L134.04 9.78L134.04 9.78Q134.04 9.26 134.68 8.83L134.68 8.83L134.68 8.83Q135.32 8.40 136.03 8.40L136.03 8.40L136.03 8.40Q136.82 8.40 137.20 8.91L137.20 8.91L137.20 8.91Q137.59 9.43 137.59 10.51L137.59 10.51L137.59 12.83L137.59 12.83Q137.59 13.03 137.59 13.14L137.59 13.14L137.59 13.14Q137.59 13.24 137.61 13.40L137.61 13.40L137.61 13.40Q137.63 13.56 137.67 13.64L137.67 13.64L137.67 13.64Q137.70 13.73 137.77 13.83L137.77 13.83L137.77 13.83Q137.83 13.92 137.94 13.98L137.94 13.98L137.94 13.98Q138.04 14.03 138.19 14.05L138.19 14.05L138.64 14.14L138.61 14.38L138.61 14.38Q138.28 14.52 137.92 14.52L137.92 14.52L137.92 14.52Q137.51 14.52 137.29 14.25L137.29 14.25L137.29 14.25Q137.06 13.99 137.06 13.60L137.06 13.60L137.06 13.51L137.03 13.51L137.03 13.51Q136.90 13.88 136.39 14.23L136.39 14.23L136.39 14.23Q135.88 14.57 135.23 14.57L135.23 14.57L135.23 14.57Q134.65 14.57 134.23 14.21L134.23 14.21L134.23 14.21Q133.81 13.84 133.81 13.24ZM146.30 16.35L146.30 16.35L146.30 16.35Q146.30 16.03 146.53 15.84L146.53 15.84L146.53 15.84Q146.74 16.03 146.99 16.11L146.99 16.11L146.99 16.11Q147.24 16.19 147.66 16.19L147.66 16.19L147.66 16.19Q148.00 16.19 148.34 15.84L148.34 15.84L148.34 15.84Q148.69 15.48 148.98 14.72L148.98 14.72L149.16 14.23L147.31 9.03L146.47 8.84L146.51 8.60L148.87 8.60L148.86 8.82L147.99 9.00L149.54 13.25L151.20 9.03L150.32 8.84L150.36 8.60L152.36 8.60L152.35 8.82L151.66 9.03L149.40 14.76L149.40 14.76Q148.94 15.93 148.47 16.45L148.47 16.45L148.47 16.45Q148.00 16.97 147.24 16.97L147.24 16.97L147.24 16.97Q146.84 16.97 146.57 16.81L146.57 16.81L146.57 16.81Q146.30 16.65 146.30 16.35Z"></path></g></svg>