<svg data-v-d3f97b9e="" xmlns="http://www.w3.org/2000/svg" viewBox="0 0 233.4099730458821 60"><!----><!----><!----><!----><g data-v-d3f97b9e="" id="b2ec4436-216d-4a88-86b6-f257abc93b55" transform="matrix(2.3340854843315975,0,0,2.3340854843315975,-0.00017333572193933833,9.536743128535363e-7)" stroke="none" fill="black"><path d="M30.719 18.446a3.629 3.629 0 1 0 0 7.259 3.63 3.63 0 1 0 0-7.259zm0 6.18a2.55 2.55 0 1 1 .001-5.101 2.55 2.55 0 0 1-.001 5.101zM69.28 18.446a3.63 3.63 0 1 0 3.63 3.629 3.63 3.63 0 0 0-3.63-3.629zm0 6.18a2.551 2.551 0 1 1-.002-5.102 2.551 2.551 0 0 1 .002 5.102z"></path><path d="M99.505 6.445c-1.437 1.592-3.406 2.642-5.325 3.532-3.007 1.396-6.209 2.38-9.399 3.256-9.748 2.677-18.736 3.718-28.729 5.058.021-.207.031-.418.031-.629 0-.81-.158-1.583-.445-2.287l9.076-1.246s.48-.094.466-.222-.505-.108-.505-.108l-9.364.893a6.082 6.082 0 0 0-4.711-3.084l-.32-10.562S50.27 0 50 0c-.272 0-.282 1.046-.282 1.046l-.315 10.561a6.087 6.087 0 0 0-4.712 3.084l-9.366-.893s-.488-.02-.503.108c-.016.128.465.222.465.222l9.077 1.246a6.052 6.052 0 0 0-.413 2.916c-9.993-1.34-18.983-2.381-28.729-5.058-3.192-.876-6.392-1.859-9.402-3.256C3.899 9.087 1.93 8.037.495 6.445c-.255-.283-.669.134-.416.415.044.051.089.101.136.15 1.497 1.576 3.496 2.656 5.459 3.542 3.019 1.368 6.195 2.378 9.389 3.248 9.869 2.685 19.653 5.722 29.775 7.081.001 0 .001-.002.003-.002a6.07 6.07 0 0 0 5.16 2.864 6.078 6.078 0 0 0 5.161-2.864v.002c10.123-1.359 19.908-4.396 29.774-7.081 3.194-.869 6.371-1.88 9.392-3.248 1.961-.886 3.959-1.966 5.457-3.542.046-.049.092-.099.137-.15.253-.281-.163-.698-.417-.415zM53.616 16.5c-.098.275-1.117.414-1.322.438l-.024.002-.015.003-1.866.052h-.779l-1.865-.052-.016-.003-.022-.002c-.206-.024-1.228-.163-1.324-.438a.2.2 0 0 1 .003-.128l-.005.002.01-.027c.004-.008.006-.017.012-.026.071-.174.31-.722.497-.828.171-.099.785 0 .785 0l1.925.178h.778l1.926-.178s.614-.099.784 0c.187.106.425.654.497.828a.485.485 0 0 1 .024.053l-.005-.002a.2.2 0 0 1 .002.128z"></path></g><!----></svg>